<svg xmlns="http://www.w3.org/2000/svg" xmlns:xlink="http://www.w3.org/1999/xlink" width="385" zoomAndPan="magnify" viewBox="0 0 288.75 88.499997" height="118" preserveAspectRatio="xMidYMid meet" version="1.0"><defs><g/><clipPath id="abc410bdc7"><path d="M 0.6875 0 L 287.816406 0 L 287.816406 88.003906 L 0.6875 88.003906 Z M 0.6875 0 " clip-rule="nonzero"/></clipPath><clipPath id="cc36dae1f2"><path d="M 0.6875 0.0117188 L 84.960938 0.0117188 L 84.960938 84.261719 L 0.6875 84.261719 Z M 0.6875 0.0117188 " clip-rule="nonzero"/></clipPath></defs><g clip-path="url(#abc410bdc7)"><path fill="#ffffff" d="M 0.6875 0 L 287.816406 0 L 287.816406 88.003906 L 0.6875 88.003906 Z M 0.6875 0 " fill-opacity="1" fill-rule="nonzero"/></g><g clip-path="url(#cc36dae1f2)"><path fill="#3a73c1" d="M 67.292969 48.648438 L 73.546875 48.648438 L 73.546875 54.890625 L 67.292969 54.890625 Z M 67.292969 41.394531 L 73.546875 41.394531 L 73.546875 47.636719 L 67.292969 47.636719 Z M 65.515625 47.636719 L 59.257812 47.636719 L 59.257812 41.394531 L 65.515625 41.394531 Z M 65.515625 54.890625 L 59.257812 54.890625 L 59.257812 48.648438 L 65.515625 48.648438 Z M 27.121094 63.078125 L 17.738281 63.078125 L 66.058594 21.195312 L 84.96875 38.296875 C 83.023438 16.832031 64.941406 0.0117188 42.914062 0.0117188 C 19.59375 0.0117188 0.6875 18.871094 0.6875 42.136719 C 0.6875 46.300781 1.296875 50.324219 2.425781 54.121094 L 18.539062 40.15625 L 18.539062 32.308594 L 23.035156 32.308594 L 23.035156 36.257812 L 40.414062 21.195312 L 40.492188 21.265625 L 50.328125 30.164062 L 45.761719 34.125 L 40.492188 29.453125 L 40.414062 29.382812 L 4.769531 60.226562 C 11.554688 74.4375 26.085938 84.261719 42.914062 84.261719 C 64.886719 84.261719 82.933594 67.523438 84.953125 46.136719 L 66.058594 29.382812 L 27.121094 63.078125 " fill-opacity="1" fill-rule="nonzero"/></g><g fill="#000000" fill-opacity="1"><g transform="translate(189.372307, 80.641148)"><g><path d="M 4.546875 -1.015625 L 7.359375 -9.34375 L 8.234375 -9.34375 L 4.921875 0 L 4.03125 0 L 0.59375 -9.34375 L 1.515625 -9.34375 Z M 4.546875 -1.015625 "/></g></g></g><g fill="#000000" fill-opacity="1"><g transform="translate(203.516374, 80.641148)"><g><path d="M 3.453125 0 L 0.9375 0 L 0.9375 -0.640625 L 1.734375 -0.734375 L 1.734375 -8.609375 L 1 -8.703125 L 1 -9.34375 L 3.375 -9.34375 L 3.375 -8.703125 L 2.640625 -8.609375 L 2.640625 -0.734375 L 3.453125 -0.640625 Z M 3.453125 0 "/></g></g></g><g fill="#000000" fill-opacity="1"><g transform="translate(213.440517, 80.641148)"><g><path d="M 6.125 0 L 1.0625 0 L 1.0625 -9.34375 L 1.984375 -9.34375 L 1.984375 -0.796875 L 6.203125 -0.796875 Z M 6.125 0 "/></g></g></g><g fill="#000000" fill-opacity="1"><g transform="translate(225.514691, 80.641148)"><g><path d="M 6.125 0 L 1.0625 0 L 1.0625 -9.34375 L 1.984375 -9.34375 L 1.984375 -0.796875 L 6.203125 -0.796875 Z M 6.125 0 "/></g></g></g><g fill="#000000" fill-opacity="1"><g transform="translate(237.588864, 80.641148)"><g><path d="M 6.4375 -2.46875 L 2.328125 -2.46875 L 1.46875 0 L 0.59375 0 L 3.984375 -9.34375 L 4.796875 -9.34375 L 8.296875 0 L 7.328125 0 Z M 2.546875 -3.140625 L 6.203125 -3.140625 L 4.34375 -8.34375 Z M 2.546875 -3.140625 "/></g></g></g><g fill="#000000" fill-opacity="1"><g transform="translate(251.839763, 80.641148)"><g><path d="M 7.046875 -8.046875 C 6.816406 -8.273438 6.398438 -8.445312 5.796875 -8.5625 C 5.578125 -8.601562 5.285156 -8.625 4.921875 -8.625 C 4.566406 -8.625 4.191406 -8.539062 3.796875 -8.375 C 3.398438 -8.207031 3.050781 -7.945312 2.75 -7.59375 C 2.101562 -6.800781 1.78125 -5.691406 1.78125 -4.265625 C 1.78125 -2.847656 2.101562 -1.851562 2.75 -1.28125 C 3.195312 -0.882812 3.785156 -0.6875 4.515625 -0.6875 C 5.253906 -0.6875 5.960938 -0.78125 6.640625 -0.96875 L 6.703125 -4.140625 L 7.4375 -4.140625 L 7.4375 -0.53125 C 7.050781 -0.28125 6.34375 -0.101562 5.3125 0 C 5.03125 0.03125 4.726562 0.046875 4.40625 0.046875 C 4.09375 0.046875 3.722656 0 3.296875 -0.09375 C 2.867188 -0.195312 2.472656 -0.40625 2.109375 -0.71875 C 1.285156 -1.425781 0.875 -2.597656 0.875 -4.234375 C 0.875 -5.867188 1.265625 -7.132812 2.046875 -8.03125 C 2.828125 -8.925781 3.835938 -9.375 5.078125 -9.375 L 5.5 -9.34375 C 6.0625 -9.289062 6.488281 -9.1875 6.78125 -9.03125 C 7.082031 -8.882812 7.289062 -8.753906 7.40625 -8.640625 Z M 7.046875 -8.046875 "/></g></g></g><g fill="#000000" fill-opacity="1"><g transform="translate(265.516437, 80.641148)"><g><path d="M 5.859375 -8.546875 L 1.984375 -8.546875 L 1.984375 -5.03125 L 5.578125 -5.03125 L 5.515625 -4.234375 L 1.984375 -4.234375 L 1.984375 -0.796875 L 6.203125 -0.796875 L 6.125 0 L 1.0625 0 L 1.0625 -9.34375 L 5.9375 -9.34375 Z M 5.859375 -8.546875 "/></g></g></g><g fill="#3a73c1" fill-opacity="1"><g transform="translate(97.207818, 48.72635)"><g><path d="M 0 7.09375 L 0 -13.59375 L 2.8125 -13.59375 L 2.8125 -12.359375 C 3.289062 -12.710938 3.816406 -13.023438 4.390625 -13.296875 C 5.242188 -13.640625 6.132812 -13.8125 7.0625 -13.8125 C 8.320312 -13.8125 9.5 -13.492188 10.59375 -12.859375 C 11.675781 -12.234375 12.523438 -11.382812 13.140625 -10.3125 C 13.773438 -9.226562 14.09375 -8.039062 14.09375 -6.75 C 14.09375 -5.5 13.785156 -4.332031 13.171875 -3.25 C 12.546875 -2.144531 11.695312 -1.285156 10.625 -0.671875 C 9.519531 -0.0351562 8.332031 0.28125 7.0625 0.28125 C 6.1875 0.28125 5.296875 0.0976562 4.390625 -0.265625 C 3.847656 -0.484375 3.320312 -0.785156 2.8125 -1.171875 L 2.8125 7.09375 Z M 7.0625 -2.546875 C 7.851562 -2.546875 8.5625 -2.734375 9.1875 -3.109375 C 9.820312 -3.484375 10.332031 -3.988281 10.71875 -4.625 C 11.09375 -5.289062 11.28125 -6 11.28125 -6.75 C 11.28125 -7.53125 11.09375 -8.238281 10.71875 -8.875 C 10.3125 -9.5625 9.800781 -10.078125 9.1875 -10.421875 C 8.5625 -10.804688 7.851562 -11 7.0625 -11 C 6.300781 -11 5.601562 -10.816406 4.96875 -10.453125 C 4.289062 -10.066406 3.765625 -9.550781 3.390625 -8.90625 C 3.023438 -8.25 2.84375 -7.53125 2.84375 -6.75 C 2.84375 -5.988281 3.023438 -5.289062 3.390625 -4.65625 C 3.765625 -4 4.28125 -3.484375 4.9375 -3.109375 C 5.601562 -2.734375 6.3125 -2.546875 7.0625 -2.546875 Z M 7.0625 -2.546875 "/></g></g></g><g fill="#3a73c1" fill-opacity="1"><g transform="translate(117.612565, 48.72635)"><g><path d="M 7.015625 0.28125 C 5.773438 0.28125 4.601562 -0.0234375 3.5 -0.640625 C 2.4375 -1.242188 1.582031 -2.101562 0.9375 -3.21875 C 0.3125 -4.28125 0 -5.453125 0 -6.734375 C 0 -7.984375 0.3125 -9.160156 0.9375 -10.265625 C 1.550781 -11.335938 2.40625 -12.195312 3.5 -12.84375 C 4.570312 -13.476562 5.742188 -13.796875 7.015625 -13.796875 C 7.972656 -13.796875 8.863281 -13.609375 9.6875 -13.234375 C 10.238281 -13.015625 10.769531 -12.710938 11.28125 -12.328125 L 11.28125 -13.578125 L 14.09375 -13.578125 L 14.09375 0 L 11.28125 0 L 11.28125 -1.140625 C 10.769531 -0.765625 10.238281 -0.460938 9.6875 -0.234375 C 8.894531 0.109375 8.003906 0.28125 7.015625 0.28125 Z M 7.015625 -2.53125 C 7.773438 -2.53125 8.484375 -2.710938 9.140625 -3.078125 C 9.816406 -3.492188 10.332031 -4.003906 10.6875 -4.609375 C 11.070312 -5.273438 11.265625 -5.984375 11.265625 -6.734375 C 11.265625 -7.523438 11.070312 -8.234375 10.6875 -8.859375 C 10.269531 -9.523438 9.753906 -10.039062 9.140625 -10.40625 C 8.484375 -10.78125 7.773438 -10.96875 7.015625 -10.96875 C 6.203125 -10.96875 5.503906 -10.785156 4.921875 -10.421875 C 4.296875 -10.085938 3.773438 -9.570312 3.359375 -8.875 C 2.992188 -8.21875 2.8125 -7.503906 2.8125 -6.734375 C 2.8125 -6.015625 2.992188 -5.3125 3.359375 -4.625 C 3.753906 -3.976562 4.273438 -3.460938 4.921875 -3.078125 C 5.566406 -2.710938 6.265625 -2.53125 7.015625 -2.53125 Z M 7.015625 -2.53125 "/></g></g></g><g fill="#3a73c1" fill-opacity="1"><g transform="translate(138.255968, 48.72635)"><g><path d="M 7.03125 0.3125 C 5.75 0.3125 4.582031 0 3.53125 -0.625 C 2.46875 -1.257812 1.609375 -2.117188 0.953125 -3.203125 C 0.316406 -4.265625 0 -5.441406 0 -6.734375 C 0 -7.984375 0.3125 -9.160156 0.9375 -10.265625 C 1.550781 -11.304688 2.414062 -12.164062 3.53125 -12.84375 C 4.59375 -13.476562 5.757812 -13.796875 7.03125 -13.796875 C 7.976562 -13.796875 8.863281 -13.609375 9.6875 -13.234375 C 10.257812 -13.015625 10.804688 -12.707031 11.328125 -12.3125 L 11.328125 -20.703125 L 14.125 -20.703125 L 14.125 0 L 11.328125 0 L 11.328125 -1.125 C 10.785156 -0.738281 10.238281 -0.4375 9.6875 -0.21875 C 8.875 0.132812 7.988281 0.3125 7.03125 0.3125 Z M 7.03125 -2.5 C 7.8125 -2.5 8.515625 -2.679688 9.140625 -3.046875 C 9.835938 -3.484375 10.363281 -4.003906 10.71875 -4.609375 C 11.09375 -5.273438 11.28125 -5.984375 11.28125 -6.734375 C 11.28125 -7.472656 11.082031 -8.171875 10.6875 -8.828125 C 10.269531 -9.523438 9.757812 -10.050781 9.15625 -10.40625 C 8.519531 -10.78125 7.8125 -10.96875 7.03125 -10.96875 C 6.289062 -10.96875 5.59375 -10.78125 4.9375 -10.40625 C 4.269531 -10.007812 3.742188 -9.492188 3.359375 -8.859375 C 2.992188 -8.210938 2.8125 -7.503906 2.8125 -6.734375 C 2.8125 -5.992188 2.992188 -5.285156 3.359375 -4.609375 C 3.753906 -3.941406 4.28125 -3.421875 4.9375 -3.046875 C 5.59375 -2.679688 6.289062 -2.5 7.03125 -2.5 Z M 7.03125 -2.5 "/></g></g></g><g fill="#3a73c1" fill-opacity="1"><g transform="translate(158.923235, 48.72635)"><g><path d="M 7.03125 0.3125 C 5.75 0.3125 4.582031 0 3.53125 -0.625 C 2.46875 -1.257812 1.609375 -2.117188 0.953125 -3.203125 C 0.316406 -4.265625 0 -5.441406 0 -6.734375 C 0 -7.984375 0.3125 -9.160156 0.9375 -10.265625 C 1.550781 -11.304688 2.414062 -12.164062 3.53125 -12.84375 C 4.59375 -13.476562 5.757812 -13.796875 7.03125 -13.796875 C 7.976562 -13.796875 8.863281 -13.609375 9.6875 -13.234375 C 10.257812 -13.015625 10.804688 -12.707031 11.328125 -12.3125 L 11.328125 -20.703125 L 14.125 -20.703125 L 14.125 0 L 11.328125 0 L 11.328125 -1.125 C 10.785156 -0.738281 10.238281 -0.4375 9.6875 -0.21875 C 8.875 0.132812 7.988281 0.3125 7.03125 0.3125 Z M 7.03125 -2.5 C 7.8125 -2.5 8.515625 -2.679688 9.140625 -3.046875 C 9.835938 -3.484375 10.363281 -4.003906 10.71875 -4.609375 C 11.09375 -5.273438 11.28125 -5.984375 11.28125 -6.734375 C 11.28125 -7.472656 11.082031 -8.171875 10.6875 -8.828125 C 10.269531 -9.523438 9.757812 -10.050781 9.15625 -10.40625 C 8.519531 -10.78125 7.8125 -10.96875 7.03125 -10.96875 C 6.289062 -10.96875 5.59375 -10.78125 4.9375 -10.40625 C 4.269531 -10.007812 3.742188 -9.492188 3.359375 -8.859375 C 2.992188 -8.210938 2.8125 -7.503906 2.8125 -6.734375 C 2.8125 -5.992188 2.992188 -5.285156 3.359375 -4.609375 C 3.753906 -3.941406 4.28125 -3.421875 4.9375 -3.046875 C 5.59375 -2.679688 6.289062 -2.5 7.03125 -2.5 Z M 7.03125 -2.5 "/></g></g></g><g fill="#3a73c1" fill-opacity="1"><g transform="translate(179.590503, 48.72635)"><g><path d="M 0 -14.859375 L 0 -17.6875 L 2.8125 -17.6875 L 2.8125 -14.859375 Z M 0.046875 0 L 0.046875 -13.578125 L 2.859375 -13.578125 L 2.859375 0 Z M 0.046875 0 "/></g></g></g><g fill="#3a73c1" fill-opacity="1"><g transform="translate(189.232042, 48.72635)"><g><path d="M 0 0 L 0 -13.578125 L 2.8125 -13.578125 L 2.8125 -12.734375 C 3.84375 -13.441406 4.988281 -13.796875 6.25 -13.796875 C 7.363281 -13.796875 8.414062 -13.515625 9.40625 -12.953125 C 10.382812 -12.378906 11.144531 -11.617188 11.6875 -10.671875 C 12.25 -9.722656 12.53125 -8.671875 12.53125 -7.515625 L 12.53125 0 L 9.703125 0 L 9.703125 -7.515625 C 9.703125 -8.109375 9.550781 -8.679688 9.25 -9.234375 C 8.9375 -9.785156 8.519531 -10.210938 8 -10.515625 C 7.5 -10.816406 6.914062 -10.96875 6.25 -10.96875 C 5.59375 -10.96875 5.019531 -10.816406 4.53125 -10.515625 C 3.976562 -10.171875 3.566406 -9.757812 3.296875 -9.28125 C 2.972656 -8.695312 2.8125 -8.109375 2.8125 -7.515625 L 2.8125 0 Z M 0 0 "/></g></g></g><g fill="#3a73c1" fill-opacity="1"><g transform="translate(208.300334, 48.72635)"><g><path d="M 7.109375 7.375 C 5.953125 7.375 4.800781 7.0625 3.65625 6.4375 C 2.570312 5.820312 1.710938 4.972656 1.078125 3.890625 C 0.378906 2.710938 0.0664062 1.414062 0.140625 0 L 2.9375 0 C 2.875 0.851562 3.054688 1.671875 3.484375 2.453125 C 3.878906 3.117188 4.390625 3.628906 5.015625 3.984375 C 5.679688 4.367188 6.378906 4.5625 7.109375 4.5625 C 7.835938 4.5625 8.53125 4.367188 9.1875 3.984375 C 9.832031 3.597656 10.34375 3.085938 10.71875 2.453125 C 11.09375 1.835938 11.28125 1.144531 11.28125 0.375 L 11.28125 -1.125 C 10.757812 -0.726562 10.226562 -0.425781 9.6875 -0.21875 C 8.832031 0.132812 7.941406 0.3125 7.015625 0.3125 C 5.804688 0.3125 4.644531 -0.00390625 3.53125 -0.640625 C 2.445312 -1.265625 1.582031 -2.125 0.9375 -3.21875 C 0.3125 -4.269531 0 -5.441406 0 -6.734375 C 0 -8.003906 0.3125 -9.179688 0.9375 -10.265625 C 1.601562 -11.367188 2.457031 -12.21875 3.5 -12.8125 C 4.570312 -13.445312 5.742188 -13.765625 7.015625 -13.765625 C 7.867188 -13.765625 8.757812 -13.585938 9.6875 -13.234375 C 10.238281 -13.003906 10.769531 -12.695312 11.28125 -12.3125 L 11.28125 -13.546875 L 14.09375 -13.546875 L 14.09375 0.375 C 14.09375 1.625 13.785156 2.785156 13.171875 3.859375 C 12.546875 4.941406 11.695312 5.796875 10.625 6.421875 C 9.550781 7.054688 8.378906 7.375 7.109375 7.375 Z M 7.015625 -2.5 C 7.773438 -2.5 8.484375 -2.679688 9.140625 -3.046875 C 9.816406 -3.453125 10.332031 -3.972656 10.6875 -4.609375 C 11.070312 -5.285156 11.265625 -5.992188 11.265625 -6.734375 C 11.265625 -7.492188 11.070312 -8.191406 10.6875 -8.828125 C 10.300781 -9.484375 9.785156 -10 9.140625 -10.375 C 8.484375 -10.757812 7.773438 -10.953125 7.015625 -10.953125 C 6.285156 -10.953125 5.59375 -10.757812 4.9375 -10.375 C 4.269531 -10.007812 3.742188 -9.503906 3.359375 -8.859375 C 2.992188 -8.210938 2.8125 -7.503906 2.8125 -6.734375 C 2.8125 -5.984375 2.992188 -5.273438 3.359375 -4.609375 C 3.753906 -3.953125 4.273438 -3.429688 4.921875 -3.046875 C 5.566406 -2.679688 6.265625 -2.5 7.015625 -2.5 Z M 7.015625 -2.5 "/></g></g></g><g fill="#3a73c1" fill-opacity="1"><g transform="translate(228.943731, 48.72635)"><g><path d="M 5.875 0.140625 C 5 0.203125 4.160156 0.0195312 3.359375 -0.40625 C 2.679688 -0.800781 2.160156 -1.332031 1.796875 -2 C 1.390625 -2.71875 1.1875 -3.4375 1.1875 -4.15625 L 1.1875 -15.265625 L 0 -15.265625 L 0 -18.078125 L 1.1875 -18.078125 L 1.1875 -20.90625 L 4.015625 -20.90625 L 4.015625 -18.078125 L 6.734375 -18.078125 L 6.734375 -15.265625 L 4.015625 -15.265625 L 4.015625 -4.15625 C 4.015625 -3.757812 4.164062 -3.398438 4.46875 -3.078125 C 4.78125 -2.722656 5.25 -2.597656 5.875 -2.703125 Z M 5.875 0.140625 "/></g></g></g><g fill="#3a73c1" fill-opacity="1"><g transform="translate(240.542215, 48.72635)"><g><path d="M 7.015625 0.3125 C 5.078125 0.3125 3.421875 -0.378906 2.046875 -1.765625 C 0.679688 -3.128906 0 -4.773438 0 -6.703125 C 0 -8.640625 0.691406 -10.300781 2.078125 -11.6875 C 3.441406 -13.070312 5.085938 -13.765625 7.015625 -13.765625 C 8.953125 -13.765625 10.613281 -13.070312 12 -11.6875 C 13.363281 -10.300781 14.046875 -8.640625 14.046875 -6.703125 C 14.046875 -4.765625 13.363281 -3.109375 12 -1.734375 C 10.632812 -0.367188 8.972656 0.3125 7.015625 0.3125 Z M 7.015625 -2.5 C 8.191406 -2.5 9.191406 -2.914062 10.015625 -3.75 C 10.847656 -4.5625 11.265625 -5.546875 11.265625 -6.703125 C 11.265625 -7.867188 10.847656 -8.867188 10.015625 -9.703125 C 9.191406 -10.535156 8.191406 -10.953125 7.015625 -10.953125 C 5.835938 -10.953125 4.84375 -10.546875 4.03125 -9.734375 C 3.21875 -8.910156 2.8125 -7.898438 2.8125 -6.703125 C 2.8125 -5.546875 3.21875 -4.5625 4.03125 -3.75 C 4.84375 -2.914062 5.835938 -2.5 7.015625 -2.5 Z M 7.015625 -2.5 "/></g></g></g><g fill="#3a73c1" fill-opacity="1"><g transform="translate(261.137886, 48.72635)"><g><path d="M 0 0 L 0 -13.578125 L 2.8125 -13.578125 L 2.8125 -12.734375 C 3.84375 -13.441406 4.988281 -13.796875 6.25 -13.796875 C 7.363281 -13.796875 8.414062 -13.515625 9.40625 -12.953125 C 10.382812 -12.378906 11.144531 -11.617188 11.6875 -10.671875 C 12.25 -9.722656 12.53125 -8.671875 12.53125 -7.515625 L 12.53125 0 L 9.703125 0 L 9.703125 -7.515625 C 9.703125 -8.109375 9.550781 -8.679688 9.25 -9.234375 C 8.9375 -9.785156 8.519531 -10.210938 8 -10.515625 C 7.5 -10.816406 6.914062 -10.96875 6.25 -10.96875 C 5.59375 -10.96875 5.019531 -10.816406 4.53125 -10.515625 C 3.976562 -10.171875 3.566406 -9.757812 3.296875 -9.28125 C 2.972656 -8.695312 2.8125 -8.109375 2.8125 -7.515625 L 2.8125 0 Z M 0 0 "/></g></g></g></svg>