<svg xmlns="http://www.w3.org/2000/svg" xmlns:xlink="http://www.w3.org/1999/xlink" width="356" zoomAndPan="magnify" viewBox="0 0 267 143.249994" height="191" preserveAspectRatio="xMidYMid meet" version="1.0"><defs><g/><clipPath id="1e222e04df"><path d="M 0.695312 0 L 266.304688 0 L 266.304688 142.503906 L 0.695312 142.503906 Z M 0.695312 0 " clip-rule="nonzero"/></clipPath><clipPath id="b25383b4be"><path d="M 0.695312 0 L 226.015625 0 L 226.015625 112.660156 L 0.695312 112.660156 Z M 0.695312 0 " clip-rule="nonzero"/></clipPath></defs><g clip-path="url(#1e222e04df)"><path fill="#ffffff" d="M 0.695312 0 L 266.304688 0 L 266.304688 142.503906 L 0.695312 142.503906 Z M 0.695312 0 " fill-opacity="1" fill-rule="nonzero"/></g><g clip-path="url(#b25383b4be)"><path fill="#004aad" d="M 226.285156 111.285156 L 226.285156 111.691406 L 16.832031 112.445312 L 15.878906 112.445312 L 15.878906 111.496094 L 15.589844 47.78125 L 4.527344 47.835938 L 0.695312 47.847656 L 3.75 45.496094 L 61.617188 0.816406 L 62.597656 0.0625 L 63.601562 0.816406 L 121.867188 44.953125 L 126.492188 48.457031 C 123.402344 48.46875 115.101562 48.511719 110.410156 48.523438 L 110.4375 62.902344 L 106.339844 62.902344 L 106.367188 46.5 L 106.367188 44.464844 L 108.386719 44.480469 L 114.890625 44.503906 L 62.597656 4.171875 L 8.386719 45.246094 L 16.832031 45.285156 L 18.085938 45.285156 L 18.085938 46.527344 L 17.78125 110.542969 Z M 226.285156 111.285156 " fill-opacity="1" fill-rule="nonzero"/></g><g fill="#004aad" fill-opacity="1"><g transform="translate(23.31878, 97.101273)"><g><path d="M 10.84375 -19.65625 C 12.582031 -19.65625 14.09375 -19.363281 15.375 -18.78125 C 16.65625 -18.195312 17.640625 -17.375 18.328125 -16.3125 C 19.023438 -15.25 19.375 -13.984375 19.375 -12.515625 C 19.375 -11.078125 19.023438 -9.816406 18.328125 -8.734375 C 17.640625 -7.660156 16.65625 -6.835938 15.375 -6.265625 C 14.09375 -5.703125 12.582031 -5.421875 10.84375 -5.421875 L 6.875 -5.421875 L 6.875 0 L 2.328125 0 L 2.328125 -19.65625 Z M 10.578125 -9.125 C 11.953125 -9.125 12.992188 -9.414062 13.703125 -10 C 14.410156 -10.59375 14.765625 -11.429688 14.765625 -12.515625 C 14.765625 -13.617188 14.410156 -14.46875 13.703125 -15.0625 C 12.992188 -15.65625 11.953125 -15.953125 10.578125 -15.953125 L 6.875 -15.953125 L 6.875 -9.125 Z M 10.578125 -9.125 "/></g></g></g><g fill="#004aad" fill-opacity="1"><g transform="translate(46.675676, 97.101273)"><g><path d="M 15.28125 -4.21875 L 6.15625 -4.21875 L 4.40625 0 L -0.25 0 L 8.5 -19.65625 L 13 -19.65625 L 21.78125 0 L 17.015625 0 Z M 13.84375 -7.671875 L 10.71875 -15.1875 L 7.609375 -7.671875 Z M 13.84375 -7.671875 "/></g></g></g><g fill="#004aad" fill-opacity="1"><g transform="translate(70.987013, 97.101273)"><g><path d="M 2.328125 -19.65625 L 11.265625 -19.65625 C 13.390625 -19.65625 15.269531 -19.25 16.90625 -18.4375 C 18.550781 -17.625 19.828125 -16.476562 20.734375 -15 C 21.640625 -13.519531 22.09375 -11.796875 22.09375 -9.828125 C 22.09375 -7.859375 21.640625 -6.132812 20.734375 -4.65625 C 19.828125 -3.175781 18.550781 -2.03125 16.90625 -1.21875 C 15.269531 -0.40625 13.390625 0 11.265625 0 L 2.328125 0 Z M 11.03125 -3.734375 C 13 -3.734375 14.566406 -4.28125 15.734375 -5.375 C 16.910156 -6.46875 17.5 -7.953125 17.5 -9.828125 C 17.5 -11.703125 16.910156 -13.1875 15.734375 -14.28125 C 14.566406 -15.375 13 -15.921875 11.03125 -15.921875 L 6.875 -15.921875 L 6.875 -3.734375 Z M 11.03125 -3.734375 "/></g></g></g><g fill="#004aad" fill-opacity="1"><g transform="translate(96.982662, 97.101273)"><g><path d="M 2.328125 -19.65625 L 11.265625 -19.65625 C 13.390625 -19.65625 15.269531 -19.25 16.90625 -18.4375 C 18.550781 -17.625 19.828125 -16.476562 20.734375 -15 C 21.640625 -13.519531 22.09375 -11.796875 22.09375 -9.828125 C 22.09375 -7.859375 21.640625 -6.132812 20.734375 -4.65625 C 19.828125 -3.175781 18.550781 -2.03125 16.90625 -1.21875 C 15.269531 -0.40625 13.390625 0 11.265625 0 L 2.328125 0 Z M 11.03125 -3.734375 C 13 -3.734375 14.566406 -4.28125 15.734375 -5.375 C 16.910156 -6.46875 17.5 -7.953125 17.5 -9.828125 C 17.5 -11.703125 16.910156 -13.1875 15.734375 -14.28125 C 14.566406 -15.375 13 -15.921875 11.03125 -15.921875 L 6.875 -15.921875 L 6.875 -3.734375 Z M 11.03125 -3.734375 "/></g></g></g><g fill="#004aad" fill-opacity="1"><g transform="translate(122.978311, 97.101273)"><g><path d="M 2.328125 -19.65625 L 6.875 -19.65625 L 6.875 0 L 2.328125 0 Z M 2.328125 -19.65625 "/></g></g></g><g fill="#004aad" fill-opacity="1"><g transform="translate(134.994192, 97.101273)"><g><path d="M 20.359375 -19.65625 L 20.359375 0 L 16.625 0 L 6.828125 -11.9375 L 6.828125 0 L 2.328125 0 L 2.328125 -19.65625 L 6.09375 -19.65625 L 15.859375 -7.71875 L 15.859375 -19.65625 Z M 20.359375 -19.65625 "/></g></g></g><g fill="#004aad" fill-opacity="1"><g transform="translate(160.484558, 97.101273)"><g><path d="M 15.609375 -10.140625 L 19.765625 -10.140625 L 19.765625 -2.15625 C 18.703125 -1.351562 17.46875 -0.734375 16.0625 -0.296875 C 14.65625 0.128906 13.242188 0.34375 11.828125 0.34375 C 9.785156 0.34375 7.945312 -0.09375 6.3125 -0.96875 C 4.6875 -1.84375 3.410156 -3.050781 2.484375 -4.59375 C 1.554688 -6.132812 1.09375 -7.878906 1.09375 -9.828125 C 1.09375 -11.773438 1.554688 -13.519531 2.484375 -15.0625 C 3.410156 -16.601562 4.695312 -17.804688 6.34375 -18.671875 C 7.988281 -19.546875 9.84375 -19.984375 11.90625 -19.984375 C 13.625 -19.984375 15.1875 -19.691406 16.59375 -19.109375 C 18 -18.535156 19.175781 -17.695312 20.125 -16.59375 L 17.21875 -13.90625 C 15.8125 -15.375 14.113281 -16.109375 12.125 -16.109375 C 10.875 -16.109375 9.757812 -15.847656 8.78125 -15.328125 C 7.8125 -14.804688 7.054688 -14.066406 6.515625 -13.109375 C 5.972656 -12.160156 5.703125 -11.066406 5.703125 -9.828125 C 5.703125 -8.609375 5.972656 -7.519531 6.515625 -6.5625 C 7.054688 -5.613281 7.804688 -4.867188 8.765625 -4.328125 C 9.734375 -3.796875 10.835938 -3.53125 12.078125 -3.53125 C 13.378906 -3.53125 14.554688 -3.8125 15.609375 -4.375 Z M 15.609375 -10.140625 "/></g></g></g><g fill="#004aad" fill-opacity="1"><g transform="translate(184.936248, 97.101273)"><g><path d="M 6.40625 -15.953125 L 0.109375 -15.953125 L 0.109375 -19.65625 L 17.234375 -19.65625 L 17.234375 -15.953125 L 10.953125 -15.953125 L 10.953125 0 L 6.40625 0 Z M 6.40625 -15.953125 "/></g></g></g><g fill="#004aad" fill-opacity="1"><g transform="translate(205.092959, 97.101273)"><g><path d="M 11.84375 0.34375 C 9.800781 0.34375 7.960938 -0.09375 6.328125 -0.96875 C 4.691406 -1.851562 3.410156 -3.066406 2.484375 -4.609375 C 1.554688 -6.160156 1.09375 -7.898438 1.09375 -9.828125 C 1.09375 -11.753906 1.554688 -13.488281 2.484375 -15.03125 C 3.410156 -16.582031 4.691406 -17.796875 6.328125 -18.671875 C 7.960938 -19.546875 9.800781 -19.984375 11.84375 -19.984375 C 13.882812 -19.984375 15.71875 -19.546875 17.34375 -18.671875 C 18.976562 -17.796875 20.265625 -16.582031 21.203125 -15.03125 C 22.140625 -13.488281 22.609375 -11.753906 22.609375 -9.828125 C 22.609375 -7.898438 22.140625 -6.160156 21.203125 -4.609375 C 20.265625 -3.066406 18.976562 -1.851562 17.34375 -0.96875 C 15.71875 -0.09375 13.882812 0.34375 11.84375 0.34375 Z M 11.84375 -3.53125 C 13.007812 -3.53125 14.054688 -3.796875 14.984375 -4.328125 C 15.921875 -4.867188 16.65625 -5.613281 17.1875 -6.5625 C 17.726562 -7.519531 18 -8.609375 18 -9.828125 C 18 -11.046875 17.726562 -12.128906 17.1875 -13.078125 C 16.65625 -14.035156 15.921875 -14.78125 14.984375 -15.3125 C 14.054688 -15.84375 13.007812 -16.109375 11.84375 -16.109375 C 10.6875 -16.109375 9.640625 -15.84375 8.703125 -15.3125 C 7.765625 -14.78125 7.03125 -14.035156 6.5 -13.078125 C 5.96875 -12.128906 5.703125 -11.046875 5.703125 -9.828125 C 5.703125 -8.609375 5.96875 -7.519531 6.5 -6.5625 C 7.03125 -5.613281 7.765625 -4.867188 8.703125 -4.328125 C 9.640625 -3.796875 10.6875 -3.53125 11.84375 -3.53125 Z M 11.84375 -3.53125 "/></g></g></g><g fill="#004aad" fill-opacity="1"><g transform="translate(231.593903, 97.101273)"><g><path d="M 20.359375 -19.65625 L 20.359375 0 L 16.625 0 L 6.828125 -11.9375 L 6.828125 0 L 2.328125 0 L 2.328125 -19.65625 L 6.09375 -19.65625 L 15.859375 -7.71875 L 15.859375 -19.65625 Z M 20.359375 -19.65625 "/></g></g></g><g fill="#004aad" fill-opacity="1"><g transform="translate(23.31878, 132.954682)"><g><path d="M 11.078125 -11.140625 L 6.140625 0 L 4.984375 0 L 0.046875 -11.140625 L 1.328125 -11.140625 L 5.59375 -1.46875 L 9.890625 -11.140625 Z M 11.078125 -11.140625 "/></g></g></g><g fill="#004aad" fill-opacity="1"><g transform="translate(47.159252, 132.954682)"><g><path d="M 1.8125 -11.140625 L 3 -11.140625 L 3 0 L 1.8125 0 Z M 1.8125 -11.140625 "/></g></g></g><g fill="#004aad" fill-opacity="1"><g transform="translate(64.69824, 132.954682)"><g><path d="M 1.8125 -11.140625 L 3 -11.140625 L 3 -1.015625 L 9.234375 -1.015625 L 9.234375 0 L 1.8125 0 Z M 1.8125 -11.140625 "/></g></g></g><g fill="#004aad" fill-opacity="1"><g transform="translate(86.80422, 132.954682)"><g><path d="M 1.8125 -11.140625 L 3 -11.140625 L 3 -1.015625 L 9.234375 -1.015625 L 9.234375 0 L 1.8125 0 Z M 1.8125 -11.140625 "/></g></g></g><g fill="#004aad" fill-opacity="1"><g transform="translate(108.910194, 132.954682)"><g><path d="M 8.8125 -2.984375 L 2.59375 -2.984375 L 1.265625 0 L 0.03125 0 L 5.125 -11.140625 L 6.296875 -11.140625 L 11.390625 0 L 10.140625 0 Z M 8.375 -3.9375 L 5.703125 -9.921875 L 3.03125 -3.9375 Z M 8.375 -3.9375 "/></g></g></g><g fill="#004aad" fill-opacity="1"><g transform="translate(133.053012, 132.954682)"><g><path d="M 9.671875 -5.578125 L 10.796875 -5.578125 L 10.796875 -1.328125 C 10.273438 -0.867188 9.65625 -0.515625 8.9375 -0.265625 C 8.226562 -0.0234375 7.484375 0.09375 6.703125 0.09375 C 5.585938 0.09375 4.582031 -0.148438 3.6875 -0.640625 C 2.800781 -1.128906 2.101562 -1.804688 1.59375 -2.671875 C 1.082031 -3.535156 0.828125 -4.503906 0.828125 -5.578125 C 0.828125 -6.648438 1.082031 -7.617188 1.59375 -8.484375 C 2.101562 -9.347656 2.800781 -10.019531 3.6875 -10.5 C 4.582031 -10.988281 5.59375 -11.234375 6.71875 -11.234375 C 7.570312 -11.234375 8.351562 -11.097656 9.0625 -10.828125 C 9.769531 -10.554688 10.367188 -10.15625 10.859375 -9.625 L 10.125 -8.890625 C 9.25 -9.753906 8.128906 -10.1875 6.765625 -10.1875 C 5.859375 -10.1875 5.039062 -9.988281 4.3125 -9.59375 C 3.59375 -9.195312 3.023438 -8.644531 2.609375 -7.9375 C 2.191406 -7.226562 1.984375 -6.441406 1.984375 -5.578125 C 1.984375 -4.703125 2.191406 -3.914062 2.609375 -3.21875 C 3.023438 -2.519531 3.59375 -1.96875 4.3125 -1.5625 C 5.03125 -1.15625 5.84375 -0.953125 6.75 -0.953125 C 7.894531 -0.953125 8.867188 -1.238281 9.671875 -1.8125 Z M 9.671875 -5.578125 "/></g></g></g><g fill="#004aad" fill-opacity="1"><g transform="translate(158.086951, 132.954682)"><g><path d="M 9.703125 -1.015625 L 9.703125 0 L 1.8125 0 L 1.8125 -11.140625 L 9.453125 -11.140625 L 9.453125 -10.125 L 3 -10.125 L 3 -6.15625 L 8.75 -6.15625 L 8.75 -5.15625 L 3 -5.15625 L 3 -1.015625 Z M 9.703125 -1.015625 "/></g></g></g></svg>