<svg xmlns="http://www.w3.org/2000/svg" xmlns:xlink="http://www.w3.org/1999/xlink" width="693" zoomAndPan="magnify" viewBox="0 0 519.75 147.750002" height="197" preserveAspectRatio="xMidYMid meet" version="1.0"><defs><g/><clipPath id="3f656dffea"><path d="M 0.3125 0 L 519.1875 0 L 519.1875 147.5 L 0.3125 147.5 Z M 0.3125 0 " clip-rule="nonzero"/></clipPath><clipPath id="b31e70bc5c"><path d="M 186 0 L 333 0 L 333 50.914062 L 186 50.914062 Z M 186 0 " clip-rule="nonzero"/></clipPath></defs><g clip-path="url(#3f656dffea)"><path fill="#ffffff" d="M 0.3125 0 L 519.1875 0 L 519.1875 147.5 L 0.3125 147.5 Z M 0.3125 0 " fill-opacity="1" fill-rule="nonzero"/></g><g fill="#292929" fill-opacity="1"><g transform="translate(210.242331, 137.943359)"><g><path d="M 5.59375 0 L -0.171875 -10.546875 L 2.34375 -10.546875 L 6.84375 -2.0625 L 6.40625 -2.0625 L 10.875 -10.546875 L 13.328125 -10.546875 L 7.578125 0 Z M 5.59375 0 "/></g></g></g><g fill="#292929" fill-opacity="1"><g transform="translate(226.629333, 137.943359)"><g><path d="M 1.59375 0 L 1.59375 -10.546875 L 3.8125 -10.546875 L 3.8125 0 Z M 1.59375 0 "/></g></g></g><g fill="#292929" fill-opacity="1"><g transform="translate(235.235548, 137.943359)"><g><path d="M 1.59375 0 L 1.59375 -10.546875 L 3.8125 -10.546875 L 3.8125 -1.84375 L 10.203125 -1.84375 L 10.203125 0 Z M 1.59375 0 "/></g></g></g><g fill="#292929" fill-opacity="1"><g transform="translate(249.078827, 137.943359)"><g><path d="M 1.59375 0 L 1.59375 -10.546875 L 3.8125 -10.546875 L 3.8125 -1.84375 L 10.203125 -1.84375 L 10.203125 0 Z M 1.59375 0 "/></g></g></g><g fill="#292929" fill-opacity="1"><g transform="translate(262.922106, 137.943359)"><g><path d="M 0.171875 0 L 6.03125 -10.546875 L 8.015625 -10.546875 L 13.84375 0 L 11.546875 0 L 9.953125 -2.953125 L 10.96875 -2.28125 L 3.03125 -2.28125 L 4.046875 -2.953125 L 2.453125 0 Z M 6.96875 -8.5 L 4.3125 -3.484375 L 3.75 -3.984375 L 10.234375 -3.984375 L 9.6875 -3.484375 L 7.015625 -8.5 Z M 6.96875 -8.5 "/></g></g></g><g fill="#292929" fill-opacity="1"><g transform="translate(280.162, 137.943359)"><g><path d="M 7.765625 0.15625 C 6.390625 0.15625 5.203125 -0.0546875 4.203125 -0.484375 C 3.210938 -0.910156 2.453125 -1.523438 1.921875 -2.328125 C 1.390625 -3.140625 1.125 -4.113281 1.125 -5.25 C 1.125 -6.382812 1.382812 -7.359375 1.90625 -8.171875 C 2.425781 -8.992188 3.175781 -9.617188 4.15625 -10.046875 C 5.132812 -10.484375 6.289062 -10.703125 7.625 -10.703125 C 8.269531 -10.703125 8.878906 -10.648438 9.453125 -10.546875 C 10.023438 -10.453125 10.554688 -10.304688 11.046875 -10.109375 C 11.546875 -9.921875 11.972656 -9.6875 12.328125 -9.40625 L 11.53125 -7.71875 C 10.96875 -8.125 10.375 -8.410156 9.75 -8.578125 C 9.125 -8.742188 8.429688 -8.828125 7.671875 -8.828125 C 6.316406 -8.828125 5.269531 -8.523438 4.53125 -7.921875 C 3.789062 -7.316406 3.421875 -6.425781 3.421875 -5.25 C 3.421875 -4.0625 3.796875 -3.164062 4.546875 -2.5625 C 5.296875 -1.96875 6.394531 -1.671875 7.84375 -1.671875 C 8.40625 -1.671875 8.941406 -1.710938 9.453125 -1.796875 C 9.960938 -1.878906 10.46875 -2 10.96875 -2.15625 L 10.578125 -1.625 L 10.578125 -4.21875 L 7.53125 -4.21875 L 7.53125 -5.859375 L 12.5 -5.859375 L 12.5 -0.703125 C 12.101562 -0.523438 11.644531 -0.375 11.125 -0.25 C 10.613281 -0.125 10.070312 -0.0234375 9.5 0.046875 C 8.9375 0.117188 8.359375 0.15625 7.765625 0.15625 Z M 7.765625 0.15625 "/></g></g></g><g fill="#292929" fill-opacity="1"><g transform="translate(297.327074, 137.943359)"><g><path d="M 1.59375 0 L 1.59375 -10.546875 L 10.328125 -10.546875 L 10.328125 -8.8125 L 3.75 -8.8125 L 3.75 -6.234375 L 9.828125 -6.234375 L 9.828125 -4.484375 L 3.75 -4.484375 L 3.75 -1.734375 L 10.328125 -1.734375 L 10.328125 0 Z M 1.59375 0 "/></g></g></g><g fill="#292929" fill-opacity="1"><g transform="translate(122.832981, 97.517125)"><g><path d="M 8.5625 -15.421875 C 9.320312 -15.441406 10.09375 -15.492188 10.875 -15.578125 C 11.65625 -15.660156 12.363281 -15.820312 13 -16.0625 C 13.644531 -16.3125 14.164062 -16.675781 14.5625 -17.15625 C 14.957031 -17.644531 15.164062 -18.296875 15.1875 -19.109375 C 15.1875 -20.148438 14.882812 -20.9375 14.28125 -21.46875 C 13.6875 -22 12.890625 -22.359375 11.890625 -22.546875 C 10.890625 -22.734375 9.78125 -22.828125 8.5625 -22.828125 Z M 2.203125 -27.90625 L 12.375 -27.90625 C 14.613281 -27.863281 16.429688 -27.425781 17.828125 -26.59375 C 19.222656 -25.757812 20.25 -24.691406 20.90625 -23.390625 C 21.5625 -22.097656 21.890625 -20.738281 21.890625 -19.3125 C 21.867188 -17.894531 21.617188 -16.679688 21.140625 -15.671875 C 20.671875 -14.671875 20.039062 -13.84375 19.25 -13.1875 C 18.457031 -12.539062 17.582031 -12.023438 16.625 -11.640625 C 15.664062 -11.253906 14.679688 -10.96875 13.671875 -10.78125 C 12.671875 -10.601562 11.722656 -10.484375 10.828125 -10.421875 C 9.941406 -10.367188 9.1875 -10.34375 8.5625 -10.34375 L 8.5625 0 L 2.203125 0 Z M 2.203125 -27.90625 "/></g></g></g><g fill="#292929" fill-opacity="1"><g transform="translate(147.895266, 97.517125)"><g><path d="M 18.671875 -27.90625 L 29.96875 0 L 23.140625 0 L 21.046875 -5.578125 L 10.421875 -5.578125 L 8.390625 0 L 1.5625 0 L 12.78125 -27.90625 Z M 18.875 -11.15625 L 15.703125 -19.28125 L 12.578125 -11.15625 Z M 18.875 -11.15625 "/></g></g></g><g fill="#292929" fill-opacity="1"><g transform="translate(180.398338, 97.517125)"><g><path d="M 17.65625 -13.9375 C 17.65625 -15.5625 17.382812 -17 16.84375 -18.25 C 16.300781 -19.5 15.375 -20.472656 14.0625 -21.171875 C 12.757812 -21.867188 10.957031 -22.21875 8.65625 -22.21875 L 8.65625 -5.6875 C 10.957031 -5.6875 12.757812 -6.035156 14.0625 -6.734375 C 15.375 -7.429688 16.300781 -8.398438 16.84375 -9.640625 C 17.382812 -10.878906 17.65625 -12.3125 17.65625 -13.9375 Z M 2.296875 -27.90625 L 10.421875 -27.90625 C 12.335938 -27.90625 14.140625 -27.5625 15.828125 -26.875 C 17.523438 -26.1875 19.019531 -25.222656 20.3125 -23.984375 C 21.613281 -22.742188 22.628906 -21.269531 23.359375 -19.5625 C 24.085938 -17.863281 24.453125 -16 24.453125 -13.96875 C 24.453125 -11.9375 24.085938 -10.066406 23.359375 -8.359375 C 22.628906 -6.660156 21.613281 -5.1875 20.3125 -3.9375 C 19.019531 -2.6875 17.523438 -1.71875 15.828125 -1.03125 C 14.140625 -0.34375 12.335938 0 10.421875 0 L 2.296875 0 Z M 2.296875 -27.90625 "/></g></g></g><g fill="#292929" fill-opacity="1"><g transform="translate(208.166361, 97.517125)"><g><path d="M 17.65625 -13.9375 C 17.65625 -15.5625 17.382812 -17 16.84375 -18.25 C 16.300781 -19.5 15.375 -20.472656 14.0625 -21.171875 C 12.757812 -21.867188 10.957031 -22.21875 8.65625 -22.21875 L 8.65625 -5.6875 C 10.957031 -5.6875 12.757812 -6.035156 14.0625 -6.734375 C 15.375 -7.429688 16.300781 -8.398438 16.84375 -9.640625 C 17.382812 -10.878906 17.65625 -12.3125 17.65625 -13.9375 Z M 2.296875 -27.90625 L 10.421875 -27.90625 C 12.335938 -27.90625 14.140625 -27.5625 15.828125 -26.875 C 17.523438 -26.1875 19.019531 -25.222656 20.3125 -23.984375 C 21.613281 -22.742188 22.628906 -21.269531 23.359375 -19.5625 C 24.085938 -17.863281 24.453125 -16 24.453125 -13.96875 C 24.453125 -11.9375 24.085938 -10.066406 23.359375 -8.359375 C 22.628906 -6.660156 21.613281 -5.1875 20.3125 -3.9375 C 19.019531 -2.6875 17.523438 -1.71875 15.828125 -1.03125 C 14.140625 -0.34375 12.335938 0 10.421875 0 L 2.296875 0 Z M 2.296875 -27.90625 "/></g></g></g><g fill="#292929" fill-opacity="1"><g transform="translate(235.934384, 97.517125)"><g><path d="M 8.890625 -27.90625 L 8.890625 0 L 2.53125 0 L 2.53125 -27.90625 Z M 8.890625 -27.90625 "/></g></g></g><g fill="#292929" fill-opacity="1"><g transform="translate(248.381146, 97.517125)"><g><path d="M 2.53125 0 L 2.53125 -27.90625 L 20 -13.53125 L 20.0625 -27.90625 L 26.421875 -27.90625 L 26.421875 0 L 8.890625 -14.34375 L 8.890625 0 Z M 2.53125 0 "/></g></g></g><g fill="#292929" fill-opacity="1"><g transform="translate(278.347572, 97.517125)"><g><path d="M 28.515625 -15.625 L 28.515625 0 L 25.234375 -1.15625 L 25.40625 -3.1875 C 24.226562 -1.894531 22.8125 -0.957031 21.15625 -0.375 C 19.5 0.207031 17.65625 0.5 15.625 0.5 C 13.757812 0.5 12 0.128906 10.34375 -0.609375 C 8.695312 -1.347656 7.25 -2.382812 6 -3.71875 C 4.75 -5.050781 3.773438 -6.585938 3.078125 -8.328125 C 2.378906 -10.078125 2.03125 -11.945312 2.03125 -13.9375 C 2.03125 -15.945312 2.367188 -17.820312 3.046875 -19.5625 C 3.722656 -21.3125 4.671875 -22.851562 5.890625 -24.1875 C 7.109375 -25.519531 8.546875 -26.554688 10.203125 -27.296875 C 11.859375 -28.046875 13.664062 -28.421875 15.625 -28.421875 C 18.082031 -28.421875 20.1875 -27.988281 21.9375 -27.125 C 23.6875 -26.269531 25.171875 -25.109375 26.390625 -23.640625 L 22.21875 -19.078125 C 21.40625 -20.390625 20.472656 -21.316406 19.421875 -21.859375 C 18.378906 -22.398438 17.238281 -22.671875 16 -22.671875 C 14.6875 -22.671875 13.492188 -22.28125 12.421875 -21.5 C 11.359375 -20.71875 10.503906 -19.664062 9.859375 -18.34375 C 9.210938 -17.03125 8.890625 -15.5625 8.890625 -13.9375 C 8.890625 -12.351562 9.210938 -10.910156 9.859375 -9.609375 C 10.503906 -8.316406 11.359375 -7.28125 12.421875 -6.5 C 13.492188 -5.726562 14.6875 -5.34375 16 -5.34375 C 17.007812 -5.34375 17.976562 -5.550781 18.90625 -5.96875 C 19.832031 -6.382812 20.585938 -7 21.171875 -7.8125 C 21.765625 -8.625 22.0625 -9.59375 22.0625 -10.71875 L 16.3125 -10.71875 L 15.15625 -15.625 Z M 28.515625 -15.625 "/></g></g></g><g fill="#292929" fill-opacity="1"><g transform="translate(309.903628, 97.517125)"><g><path d="M 1.71875 -22.328125 L 1.71875 -27.90625 L 21.34375 -27.90625 L 21.34375 -22.328125 L 14.71875 -22.328125 L 14.71875 0 L 8.359375 0 L 8.359375 -22.328125 Z M 1.71875 -22.328125 "/></g></g></g><g fill="#292929" fill-opacity="1"><g transform="translate(333.985081, 97.517125)"><g><path d="M 8.359375 -13.96875 C 8.359375 -12.53125 8.703125 -11.207031 9.390625 -10 C 10.078125 -8.789062 11.003906 -7.816406 12.171875 -7.078125 C 13.347656 -6.347656 14.660156 -5.984375 16.109375 -5.984375 C 17.546875 -5.984375 18.84375 -6.347656 20 -7.078125 C 21.164062 -7.816406 22.09375 -8.789062 22.78125 -10 C 23.46875 -11.207031 23.8125 -12.53125 23.8125 -13.96875 C 23.8125 -15.414062 23.46875 -16.738281 22.78125 -17.9375 C 22.09375 -19.144531 21.164062 -20.109375 20 -20.828125 C 18.84375 -21.554688 17.546875 -21.921875 16.109375 -21.921875 C 14.660156 -21.921875 13.347656 -21.554688 12.171875 -20.828125 C 11.003906 -20.109375 10.078125 -19.144531 9.390625 -17.9375 C 8.703125 -16.738281 8.359375 -15.414062 8.359375 -13.96875 Z M 2.03125 -13.96875 C 2.03125 -15.925781 2.390625 -17.773438 3.109375 -19.515625 C 3.828125 -21.253906 4.828125 -22.796875 6.109375 -24.140625 C 7.398438 -25.484375 8.894531 -26.53125 10.59375 -27.28125 C 12.300781 -28.039062 14.140625 -28.421875 16.109375 -28.421875 C 18.066406 -28.421875 19.894531 -28.039062 21.59375 -27.28125 C 23.300781 -26.53125 24.789062 -25.484375 26.0625 -24.140625 C 27.332031 -22.796875 28.328125 -21.253906 29.046875 -19.515625 C 29.773438 -17.773438 30.140625 -15.925781 30.140625 -13.96875 C 30.140625 -12.007812 29.773438 -10.15625 29.046875 -8.40625 C 28.328125 -6.65625 27.332031 -5.113281 26.0625 -3.78125 C 24.789062 -2.457031 23.300781 -1.410156 21.59375 -0.640625 C 19.894531 0.117188 18.066406 0.5 16.109375 0.5 C 14.140625 0.5 12.300781 0.117188 10.59375 -0.640625 C 8.894531 -1.410156 7.398438 -2.457031 6.109375 -3.78125 C 4.828125 -5.113281 3.828125 -6.65625 3.109375 -8.40625 C 2.390625 -10.15625 2.03125 -12.007812 2.03125 -13.96875 Z M 2.03125 -13.96875 "/></g></g></g><g fill="#292929" fill-opacity="1"><g transform="translate(367.164572, 97.517125)"><g><path d="M 2.53125 0 L 2.53125 -27.90625 L 20 -13.53125 L 20.0625 -27.90625 L 26.421875 -27.90625 L 26.421875 0 L 8.890625 -14.34375 L 8.890625 0 Z M 2.53125 0 "/></g></g></g><g clip-path="url(#b31e70bc5c)"><path fill="#292929" d="M 259.511719 0.0429688 L 259.484375 0.0859375 L 259.453125 0.0429688 L 217.144531 24.996094 L 217.144531 15.050781 L 203.566406 15.050781 L 203.566406 32.972656 L 203.613281 32.972656 L 186.164062 43.261719 L 190.761719 51.058594 L 259.484375 10.535156 L 328.203125 51.058594 L 332.800781 43.261719 Z M 259.511719 0.0429688 " fill-opacity="1" fill-rule="nonzero"/></g></svg>