<svg xmlns="http://www.w3.org/2000/svg" xmlns:xlink="http://www.w3.org/1999/xlink" width="500" zoomAndPan="magnify" viewBox="0 0 375 374.999991" height="500" preserveAspectRatio="xMidYMid meet" version="1.0"><defs><g/><clipPath id="db90cdbf5a"><path d="M 73.660156 126.722656 L 273.089844 126.722656 L 273.089844 226.441406 L 73.660156 226.441406 Z M 73.660156 126.722656 " clip-rule="nonzero"/></clipPath></defs><rect x="-37.5" width="450" fill="#ffffff" y="-37.499999" height="449.999989" fill-opacity="1"/><rect x="-37.5" width="450" fill="#ffffff" y="-37.499999" height="449.999989" fill-opacity="1"/><g clip-path="url(#db90cdbf5a)"><path fill="#004aad" d="M 273.328125 225.222656 L 273.328125 225.582031 L 87.941406 226.25 L 87.097656 226.25 L 87.097656 225.410156 L 86.839844 169.015625 L 77.050781 169.0625 L 73.660156 169.074219 L 76.359375 166.992188 L 127.582031 127.445312 L 128.449219 126.777344 L 129.335938 127.445312 L 180.910156 166.511719 L 185.003906 169.613281 C 182.265625 169.625 174.921875 169.660156 170.769531 169.671875 L 170.792969 182.398438 L 167.164062 182.398438 L 167.1875 167.882812 L 167.1875 166.082031 L 168.976562 166.09375 L 174.734375 166.117188 L 128.449219 130.417969 L 80.464844 166.769531 L 87.941406 166.804688 L 89.050781 166.804688 L 89.050781 167.90625 L 88.78125 224.566406 Z M 273.328125 225.222656 " fill-opacity="1" fill-rule="nonzero"/></g><g fill="#004aad" fill-opacity="1"><g transform="translate(93.682674, 212.668285)"><g><path d="M 9.59375 -17.40625 C 11.132812 -17.40625 12.472656 -17.144531 13.609375 -16.625 C 14.742188 -16.113281 15.617188 -15.382812 16.234375 -14.4375 C 16.847656 -13.5 17.15625 -12.382812 17.15625 -11.09375 C 17.15625 -9.8125 16.847656 -8.691406 16.234375 -7.734375 C 15.617188 -6.785156 14.742188 -6.054688 13.609375 -5.546875 C 12.472656 -5.046875 11.132812 -4.796875 9.59375 -4.796875 L 6.09375 -4.796875 L 6.09375 0 L 2.0625 0 L 2.0625 -17.40625 Z M 9.375 -8.078125 C 10.582031 -8.078125 11.5 -8.335938 12.125 -8.859375 C 12.757812 -9.378906 13.078125 -10.125 13.078125 -11.09375 C 13.078125 -12.0625 12.757812 -12.804688 12.125 -13.328125 C 11.5 -13.859375 10.582031 -14.125 9.375 -14.125 L 6.09375 -14.125 L 6.09375 -8.078125 Z M 9.375 -8.078125 "/></g></g></g><g fill="#004aad" fill-opacity="1"><g transform="translate(114.355975, 212.668285)"><g><path d="M 13.53125 -3.734375 L 5.4375 -3.734375 L 3.90625 0 L -0.21875 0 L 7.53125 -17.40625 L 11.515625 -17.40625 L 19.296875 0 L 15.0625 0 Z M 12.25 -6.78125 L 9.5 -13.453125 L 6.734375 -6.78125 Z M 12.25 -6.78125 "/></g></g></g><g fill="#004aad" fill-opacity="1"><g transform="translate(135.874057, 212.668285)"><g><path d="M 2.0625 -17.40625 L 9.96875 -17.40625 C 11.851562 -17.40625 13.519531 -17.039062 14.96875 -16.3125 C 16.425781 -15.59375 17.554688 -14.578125 18.359375 -13.265625 C 19.160156 -11.960938 19.5625 -10.441406 19.5625 -8.703125 C 19.5625 -6.960938 19.160156 -5.4375 18.359375 -4.125 C 17.554688 -2.8125 16.425781 -1.796875 14.96875 -1.078125 C 13.519531 -0.359375 11.851562 0 9.96875 0 L 2.0625 0 Z M 9.765625 -3.3125 C 11.503906 -3.3125 12.890625 -3.796875 13.921875 -4.765625 C 14.960938 -5.734375 15.484375 -7.046875 15.484375 -8.703125 C 15.484375 -10.359375 14.960938 -11.671875 13.921875 -12.640625 C 12.890625 -13.609375 11.503906 -14.09375 9.765625 -14.09375 L 6.09375 -14.09375 L 6.09375 -3.3125 Z M 9.765625 -3.3125 "/></g></g></g><g fill="#004aad" fill-opacity="1"><g transform="translate(158.882932, 212.668285)"><g><path d="M 2.0625 -17.40625 L 9.96875 -17.40625 C 11.851562 -17.40625 13.519531 -17.039062 14.96875 -16.3125 C 16.425781 -15.59375 17.554688 -14.578125 18.359375 -13.265625 C 19.160156 -11.960938 19.5625 -10.441406 19.5625 -8.703125 C 19.5625 -6.960938 19.160156 -5.4375 18.359375 -4.125 C 17.554688 -2.8125 16.425781 -1.796875 14.96875 -1.078125 C 13.519531 -0.359375 11.851562 0 9.96875 0 L 2.0625 0 Z M 9.765625 -3.3125 C 11.503906 -3.3125 12.890625 -3.796875 13.921875 -4.765625 C 14.960938 -5.734375 15.484375 -7.046875 15.484375 -8.703125 C 15.484375 -10.359375 14.960938 -11.671875 13.921875 -12.640625 C 12.890625 -13.609375 11.503906 -14.09375 9.765625 -14.09375 L 6.09375 -14.09375 L 6.09375 -3.3125 Z M 9.765625 -3.3125 "/></g></g></g><g fill="#004aad" fill-opacity="1"><g transform="translate(181.891807, 212.668285)"><g><path d="M 2.0625 -17.40625 L 6.09375 -17.40625 L 6.09375 0 L 2.0625 0 Z M 2.0625 -17.40625 "/></g></g></g><g fill="#004aad" fill-opacity="1"><g transform="translate(192.527122, 212.668285)"><g><path d="M 18.015625 -17.40625 L 18.015625 0 L 14.71875 0 L 6.046875 -10.5625 L 6.046875 0 L 2.0625 0 L 2.0625 -17.40625 L 5.390625 -17.40625 L 14.046875 -6.84375 L 14.046875 -17.40625 Z M 18.015625 -17.40625 "/></g></g></g><g fill="#004aad" fill-opacity="1"><g transform="translate(215.088768, 212.668285)"><g><path d="M 13.828125 -8.96875 L 17.5 -8.96875 L 17.5 -1.921875 C 16.550781 -1.203125 15.457031 -0.648438 14.21875 -0.265625 C 12.976562 0.109375 11.726562 0.296875 10.46875 0.296875 C 8.65625 0.296875 7.03125 -0.0859375 5.59375 -0.859375 C 4.15625 -1.628906 3.023438 -2.695312 2.203125 -4.0625 C 1.378906 -5.425781 0.96875 -6.972656 0.96875 -8.703125 C 0.96875 -10.421875 1.378906 -11.960938 2.203125 -13.328125 C 3.023438 -14.703125 4.164062 -15.773438 5.625 -16.546875 C 7.082031 -17.316406 8.722656 -17.703125 10.546875 -17.703125 C 12.066406 -17.703125 13.445312 -17.441406 14.6875 -16.921875 C 15.9375 -16.410156 16.984375 -15.664062 17.828125 -14.6875 L 15.234375 -12.3125 C 13.992188 -13.613281 12.492188 -14.265625 10.734375 -14.265625 C 9.628906 -14.265625 8.644531 -14.03125 7.78125 -13.5625 C 6.914062 -13.101562 6.242188 -12.453125 5.765625 -11.609375 C 5.285156 -10.765625 5.046875 -9.796875 5.046875 -8.703125 C 5.046875 -7.617188 5.285156 -6.65625 5.765625 -5.8125 C 6.242188 -4.96875 6.910156 -4.304688 7.765625 -3.828125 C 8.617188 -3.359375 9.59375 -3.125 10.6875 -3.125 C 11.851562 -3.125 12.898438 -3.375 13.828125 -3.875 Z M 13.828125 -8.96875 "/></g></g></g><g fill="#004aad" fill-opacity="1"><g transform="translate(236.731078, 212.668285)"><g><path d="M 5.671875 -14.125 L 0.09375 -14.125 L 0.09375 -17.40625 L 15.265625 -17.40625 L 15.265625 -14.125 L 9.6875 -14.125 L 9.6875 0 L 5.671875 0 Z M 5.671875 -14.125 "/></g></g></g><g fill="#004aad" fill-opacity="1"><g transform="translate(254.571881, 212.668285)"><g><path d="M 10.484375 0.296875 C 8.679688 0.296875 7.054688 -0.0859375 5.609375 -0.859375 C 4.160156 -1.640625 3.023438 -2.710938 2.203125 -4.078125 C 1.378906 -5.453125 0.96875 -6.992188 0.96875 -8.703125 C 0.96875 -10.410156 1.378906 -11.945312 2.203125 -13.3125 C 3.023438 -14.675781 4.160156 -15.75 5.609375 -16.53125 C 7.054688 -17.3125 8.679688 -17.703125 10.484375 -17.703125 C 12.296875 -17.703125 13.921875 -17.3125 15.359375 -16.53125 C 16.804688 -15.75 17.941406 -14.675781 18.765625 -13.3125 C 19.597656 -11.945312 20.015625 -10.410156 20.015625 -8.703125 C 20.015625 -6.992188 19.597656 -5.453125 18.765625 -4.078125 C 17.941406 -2.710938 16.804688 -1.640625 15.359375 -0.859375 C 13.921875 -0.0859375 12.296875 0.296875 10.484375 0.296875 Z M 10.484375 -3.125 C 11.515625 -3.125 12.441406 -3.359375 13.265625 -3.828125 C 14.097656 -4.304688 14.75 -4.96875 15.21875 -5.8125 C 15.695312 -6.65625 15.9375 -7.617188 15.9375 -8.703125 C 15.9375 -9.773438 15.695312 -10.734375 15.21875 -11.578125 C 14.75 -12.429688 14.097656 -13.09375 13.265625 -13.5625 C 12.441406 -14.03125 11.515625 -14.265625 10.484375 -14.265625 C 9.460938 -14.265625 8.535156 -14.03125 7.703125 -13.5625 C 6.878906 -13.09375 6.226562 -12.429688 5.75 -11.578125 C 5.28125 -10.734375 5.046875 -9.773438 5.046875 -8.703125 C 5.046875 -7.617188 5.28125 -6.65625 5.75 -5.8125 C 6.226562 -4.96875 6.878906 -4.304688 7.703125 -3.828125 C 8.535156 -3.359375 9.460938 -3.125 10.484375 -3.125 Z M 10.484375 -3.125 "/></g></g></g><g fill="#004aad" fill-opacity="1"><g transform="translate(278.027994, 212.668285)"><g><path d="M 18.015625 -17.40625 L 18.015625 0 L 14.71875 0 L 6.046875 -10.5625 L 6.046875 0 L 2.0625 0 L 2.0625 -17.40625 L 5.390625 -17.40625 L 14.046875 -6.84375 L 14.046875 -17.40625 Z M 18.015625 -17.40625 "/></g></g></g><g fill="#004aad" fill-opacity="1"><g transform="translate(133.151535, 244.402296)"><g><path d="M 9.796875 -9.859375 L 5.4375 0 L 4.40625 0 L 0.046875 -9.859375 L 1.171875 -9.859375 L 4.9375 -1.296875 L 8.75 -9.859375 Z M 9.796875 -9.859375 "/></g></g></g><g fill="#004aad" fill-opacity="1"><g transform="translate(154.252852, 244.402296)"><g><path d="M 1.609375 -9.859375 L 2.640625 -9.859375 L 2.640625 0 L 1.609375 0 Z M 1.609375 -9.859375 "/></g></g></g><g fill="#004aad" fill-opacity="1"><g transform="translate(169.776695, 244.402296)"><g><path d="M 1.609375 -9.859375 L 2.640625 -9.859375 L 2.640625 -0.90625 L 8.171875 -0.90625 L 8.171875 0 L 1.609375 0 Z M 1.609375 -9.859375 "/></g></g></g><g fill="#004aad" fill-opacity="1"><g transform="translate(189.342805, 244.402296)"><g><path d="M 1.609375 -9.859375 L 2.640625 -9.859375 L 2.640625 -0.90625 L 8.171875 -0.90625 L 8.171875 0 L 1.609375 0 Z M 1.609375 -9.859375 "/></g></g></g><g fill="#004aad" fill-opacity="1"><g transform="translate(208.90891, 244.402296)"><g><path d="M 7.78125 -2.625 L 2.296875 -2.625 L 1.109375 0 L 0.03125 0 L 4.53125 -9.859375 L 5.5625 -9.859375 L 10.0625 0 L 8.96875 0 Z M 7.40625 -3.484375 L 5.046875 -8.765625 L 2.671875 -3.484375 Z M 7.40625 -3.484375 "/></g></g></g><g fill="#004aad" fill-opacity="1"><g transform="translate(230.277835, 244.402296)"><g><path d="M 8.546875 -4.921875 L 9.546875 -4.921875 L 9.546875 -1.171875 C 9.085938 -0.765625 8.539062 -0.453125 7.90625 -0.234375 C 7.28125 -0.0234375 6.617188 0.078125 5.921875 0.078125 C 4.941406 0.078125 4.054688 -0.132812 3.265625 -0.5625 C 2.472656 -0.988281 1.851562 -1.582031 1.40625 -2.34375 C 0.957031 -3.113281 0.734375 -3.972656 0.734375 -4.921875 C 0.734375 -5.867188 0.957031 -6.722656 1.40625 -7.484375 C 1.851562 -8.253906 2.472656 -8.851562 3.265625 -9.28125 C 4.054688 -9.71875 4.945312 -9.9375 5.9375 -9.9375 C 6.6875 -9.9375 7.375 -9.816406 8 -9.578125 C 8.632812 -9.335938 9.164062 -8.984375 9.59375 -8.515625 L 8.953125 -7.859375 C 8.171875 -8.628906 7.179688 -9.015625 5.984375 -9.015625 C 5.179688 -9.015625 4.457031 -8.835938 3.8125 -8.484375 C 3.175781 -8.128906 2.675781 -7.640625 2.3125 -7.015625 C 1.945312 -6.390625 1.765625 -5.691406 1.765625 -4.921875 C 1.765625 -4.148438 1.945312 -3.457031 2.3125 -2.84375 C 2.675781 -2.226562 3.175781 -1.738281 3.8125 -1.375 C 4.445312 -1.019531 5.164062 -0.84375 5.96875 -0.84375 C 6.976562 -0.84375 7.835938 -1.097656 8.546875 -1.609375 Z M 8.546875 -4.921875 "/></g></g></g><g fill="#004aad" fill-opacity="1"><g transform="translate(252.435496, 244.402296)"><g><path d="M 8.578125 -0.90625 L 8.578125 0 L 1.609375 0 L 1.609375 -9.859375 L 8.359375 -9.859375 L 8.359375 -8.953125 L 2.640625 -8.953125 L 2.640625 -5.453125 L 7.75 -5.453125 L 7.75 -4.5625 L 2.640625 -4.5625 L 2.640625 -0.90625 Z M 8.578125 -0.90625 "/></g></g></g></svg>